<svg width="480" height="321" viewBox="0 0 480 321" fill="none" xmlns="http://www.w3.org/2000/svg">
<path d="M453.341 319.764L271.122 319.811L231.237 319.821L218.048 319.825L178.24 319.837L28.8919 320.572C28.7945 320.247 28.699 319.924 28.608 319.604C12.4419 263.683 61.5113 264.38 75.0659 247.002C79.8923 240.817 80.2176 232.339 71.5002 218.203C71.4591 218.136 71.4165 218.07 71.3751 218.002C66.175 209.536 62.391 201.221 59.888 193.102C54.6415 176.094 55.0075 159.931 59.7273 144.997C63.3045 133.675 69.3859 123.057 77.4215 113.312C80.5499 109.515 83.9771 105.85 87.6701 102.326C161.831 31.5564 342.684 18.1429 367.708 141.795C381.897 211.901 404.339 171.34 450.499 221.146C465.738 237.588 470.878 254.327 471.047 269.237C471.372 297.883 453.341 319.764 453.341 319.764Z" fill="#EBF3FA"/>
<path d="M232.087 128.559C231.578 132.391 230.69 136.446 229.385 140.738C226.972 148.697 223.14 157.455 217.672 167.068C216.522 169.093 215.546 171.002 214.735 172.815L59.8882 193.102C54.6414 176.094 55.0076 159.932 59.7274 144.996L226.479 98.2918C229.274 102.759 231.205 107.841 232.083 113.59C232.779 118.152 232.81 123.131 232.087 128.559Z" fill="#F1F7FD"/>
<path d="M453.341 319.764L271.122 319.811L231.237 319.821L218.048 319.825L178.24 319.837L28.8919 320.572C28.7945 320.247 28.699 319.924 28.608 319.604C12.4419 263.683 61.5113 264.38 75.0659 247.002C79.8923 240.817 80.2176 232.339 71.5002 218.203C71.4591 218.136 71.4165 218.07 71.3751 218.002C118.969 197.607 118.794 199.794 169.538 208.625C232.159 219.519 283.704 232.176 309.23 218.434C334.753 204.693 389.777 214.615 404.905 234.407C420.036 254.198 416.675 273.81 432.366 272.166C443.56 270.993 457.606 265.304 471.047 269.237C471.372 297.883 453.341 319.764 453.341 319.764Z" fill="#DFEBFD"/>
<path d="M159.307 224.213C159.307 224.213 137.68 220.503 122.998 233.05C108.316 245.596 116.991 267.034 104.869 269.809C87.3918 273.81 47.1945 279.549 51.3889 318.864C51.8131 322.839 174.078 318.864 174.078 318.864L168.834 234.17L159.307 224.213Z" fill="#60CA6B"/>
<path d="M335.773 252.689C335.773 252.689 361.602 247.78 379.533 263.054C397.467 278.33 389.295 290.877 398.899 294.152C408.508 297.424 422.089 303.828 419.045 319.994H332.248L335.773 252.689Z" fill="#7ED787"/>
<path d="M442.37 318.724H430.701C430.076 318.173 431.135 316.921 432.238 316.835C432.721 316.797 433.327 316.903 434.021 317.054C434.18 314.837 435.097 304.86 438.556 305.262C442.443 305.71 438.556 309.655 437.455 311.99C436.641 313.72 435.782 316.2 435.39 317.371C435.706 317.442 436.035 317.512 436.367 317.576C436.882 315.929 438.797 310.395 441.237 310.718C444.098 311.094 442.949 313.314 440.92 314.631C439.43 315.599 437.606 316.977 436.734 317.641C437.473 317.767 438.239 317.85 439.017 317.832C441.016 317.783 441.994 318.396 442.37 318.724Z" fill="#82B378"/>
<path d="M362.269 311.004H156.573V16.2573H362.269V311.004Z" fill="#B2F7B9"/>
<path d="M367.724 156.568H156.6V147.113H367.724V156.568Z" fill="#7ED787"/>
<path d="M336.09 132.081H279.902V54.3724H336.09V132.081Z" fill="#E6F0FD"/>
<path d="M334.721 55.799V130.655H281.274V55.799H334.721Z" fill="#DFEBFD"/>
<path d="M293.981 55.0405V76.3591C293.981 76.5465 293.979 76.7295 293.975 76.9082C293.942 78.5709 293.751 79.8479 293.527 79.8479H293.462C293.25 79.8479 293.074 78.7474 293.022 77.2634C293.018 77.1392 293.014 77.015 293.012 76.8886V76.8603C293.007 76.6968 293.007 76.5291 293.007 76.3591V54.9425C293.334 54.9664 293.661 54.9991 293.981 55.0405Z" fill="#AFCDFB"/>
<path d="M293.241 77.1543C289.692 77.1543 286.815 80.318 286.815 84.2215H299.664C299.664 80.318 296.789 77.1543 293.241 77.1543Z" fill="#AFCDFB"/>
<path d="M293.75 77.2406C293.566 77.1992 293.378 77.1774 293.185 77.1774C290.875 77.1774 288.999 80.3306 288.999 84.2221H290.129C290.129 80.6529 291.706 77.7044 293.75 77.2406Z" fill="#CDE0FB"/>
<path d="M292.158 107.688C292.158 107.688 288.995 103.847 291.963 101.407C291.963 101.407 294.131 100.041 295.9 100.153C295.9 100.153 293.394 104.522 294.205 104.958C295.016 105.394 296.658 99.8767 296.658 99.8767C296.658 99.8767 301.593 99.3795 303.182 100.173C303.182 100.173 298.962 103.765 299.852 103.98C300.74 104.194 305.297 100.668 305.297 100.668C305.297 100.668 309.89 101.482 309.644 104.397C309.401 107.312 307.818 108.213 307.123 108.135C306.426 108.057 302.358 106.44 302.27 107.033C302.18 107.626 304.631 109.565 306.345 109.656C306.345 109.656 303.107 113.371 300.955 112.3C298.802 111.225 298.618 109.526 297.276 108.89C295.937 108.251 294.79 108.254 295.345 108.904C295.898 109.554 298.326 110.185 299.094 111.597C299.861 113.009 300.549 113.962 298.322 113.613C296.095 113.264 292.476 111.57 292.316 109.629C292.158 107.688 292.158 107.688 292.158 107.688Z" fill="#0FC497"/>
<path d="M307.389 104.475C307.389 104.475 294.911 103.975 292.158 107.686C292.158 107.686 291.548 109.587 289.674 111.315L289.38 112.143C289.38 112.143 291.542 109.772 292.314 109.627C292.314 109.627 291.106 105.03 307.389 104.475Z" fill="#82B378"/>
<path d="M289.674 111.314C289.674 111.314 286.996 113.374 286.809 117.055L287.295 117.101C287.295 117.101 288.151 113.294 289.697 111.807C291.243 110.317 289.674 111.314 289.674 111.314Z" fill="#82B378"/>
<path d="M284.033 108.149C284.033 108.149 284.033 108.149 283.346 109.683C283.315 109.752 283.282 109.827 283.249 109.902L283.247 109.906C282.95 110.568 282.203 111.022 281.272 111.305V98.7173C281.947 99.0215 282.402 99.2487 282.402 99.2487C282.402 99.2487 282.12 104.987 283.022 104.869C283.922 104.753 283.022 99.7757 283.022 99.7757C284.709 100.303 286.286 102.351 286.286 102.351C288.255 105.689 284.033 108.149 284.033 108.149Z" fill="#00E3AB"/>
<path d="M285.162 112.424V113.301C285.162 113.301 285.145 113.267 285.119 113.203L285.117 113.195C285.082 113.106 285.043 113.021 285.004 112.938C284.996 112.917 284.988 112.895 284.978 112.874L284.958 112.827C284.882 112.66 284.788 112.454 284.686 112.231L284.682 112.222C284.258 111.322 283.652 110.153 283.246 109.906L283.248 109.902C283.258 109.887 283.303 109.813 283.346 109.684C283.515 109.166 283.639 107.752 281.272 105.614V104.852C282.635 105.879 283.684 106.998 284.035 108.149C284.035 108.149 283.98 110.136 285.157 112.418L285.162 112.424Z" fill="#82B378"/>
<path d="M285.159 112.423C285.159 112.423 286.983 115.303 285.945 118.808L285.475 118.677C285.475 118.677 285.93 114.816 284.976 112.874C284.022 110.934 285.159 112.423 285.159 112.423Z" fill="#82B378"/>
<path d="M289.089 101.884C289.089 101.884 283.524 98.6434 286.121 94.2429C286.121 94.2429 288.198 91.5406 290.423 90.8467C290.423 90.8467 289.236 97.4086 290.423 97.5615C291.61 97.7167 291.239 90.1529 291.239 90.1529C291.239 90.1529 297.101 87.22 299.402 87.4505C299.402 87.4505 295.767 93.8572 296.952 93.702C298.138 93.5491 302.219 87.0648 302.219 87.0648C302.219 87.0648 308.23 85.9076 309.193 89.612C310.158 93.3163 308.6 95.1696 307.71 95.4001C306.819 95.6329 301.107 95.5553 301.256 96.3268C301.403 97.0982 305.262 98.333 307.411 97.6392C307.411 97.6392 305.038 103.738 301.923 103.427C298.805 103.119 297.842 101.113 295.914 100.958C293.986 100.805 292.575 101.343 293.538 101.884C294.503 102.425 297.768 102.062 299.327 103.439C300.885 104.817 302.144 105.666 299.253 106.285C296.359 106.901 291.167 106.515 290.127 104.201C289.089 101.884 289.089 101.884 289.089 101.884Z" fill="#00E3AB"/>
<path d="M306.447 90.7718C306.447 90.7718 290.868 96.0188 289.087 101.885C289.087 101.885 289.161 104.509 287.602 107.52V108.677C287.602 108.677 289.235 104.742 290.125 104.2C290.125 104.2 286.639 99.1065 306.447 90.7718Z" fill="#82B378"/>
<path d="M287.603 107.519C287.603 107.519 285.201 111.315 286.572 115.935L287.19 115.763C287.19 115.763 286.589 110.673 287.846 108.114C289.104 105.554 287.603 107.519 287.603 107.519Z" fill="#82B378"/>
<path d="M322.71 118.767C322.71 118.767 330.945 83.8602 331.54 80.926C331.805 79.6205 332.622 79.1465 333.443 79.0249C331.996 78.8718 330.942 78.8596 330.942 78.8596C328.094 78.8596 325.561 80.9819 324.647 84.1349C322.652 91.0147 314.922 102.528 311.203 115.446C311.392 115.442 322.71 118.767 322.71 118.767Z" fill="#F99746"/>
<path d="M281.272 130.655V124.112C282.767 121.11 284.276 118.393 285.58 116.263C285.782 115.938 285.977 115.623 286.167 115.327V115.325C286.228 115.229 286.29 115.134 286.351 115.04V115.038C286.598 114.651 286.839 114.291 287.065 113.963V113.961C287.413 113.455 287.73 113.018 288.01 112.665C288.402 112.166 288.908 111.77 289.499 111.465V111.462C289.549 111.435 289.6 111.41 289.65 111.387C289.871 111.278 290.105 111.182 290.348 111.098C290.372 111.089 290.398 111.08 290.425 111.071H290.427C291.11 110.836 291.87 110.688 292.684 110.606H292.686C294.461 110.426 296.488 110.567 298.494 110.868H298.496C298.752 110.907 299.008 110.945 299.264 110.991C300.376 111.178 301.471 111.408 302.502 111.656H302.513C302.889 111.747 303.257 111.838 303.612 111.929C303.64 111.938 303.666 111.943 303.693 111.952H303.695C303.82 111.984 303.944 112.018 304.067 112.05C304.619 112.196 305.144 112.344 305.628 112.485C307.639 113.075 308.975 113.569 308.975 113.569L308.984 113.851L309.008 114.906L309.021 115.423L309.058 116.944L309.06 117.01L309.065 117.22L309.095 118.543L309.1 118.652L309.391 130.655H281.272Z" fill="#F99746"/>
<path d="M320.109 118.209C319.938 118.122 319.683 117.99 319.353 117.824H319.351C319.288 117.793 319.222 117.76 319.157 117.728H319.155C318.976 117.638 318.78 117.542 318.566 117.439C318.302 117.31 318.015 117.171 317.706 117.026C317.28 116.824 316.81 116.603 316.305 116.375C316.158 116.307 316.009 116.239 315.853 116.171H315.851C315.707 116.105 315.558 116.04 315.407 115.974L315.404 115.972C314.816 115.711 314.191 115.441 313.536 115.171L313.534 115.169C312.925 114.913 312.286 114.655 311.63 114.404L311.526 114.361C309.698 113.655 307.731 112.972 305.768 112.425C305.149 112.253 304.536 112.094 303.926 111.955H303.924C303.841 111.934 303.757 111.915 303.676 111.896H303.674L303.66 111.892H303.658C303.274 111.805 302.891 111.727 302.512 111.657L302.5 111.655C301.474 111.462 300.476 111.328 299.524 111.272C299.296 111.258 299.073 111.248 298.854 111.244C297.105 111.201 295.546 111.443 294.33 112.087C293.5 112.528 292.83 113.155 292.363 114.004C291.884 114.88 291.239 116.282 290.508 118.054C289.154 121.329 287.509 125.866 286.101 130.656H319.29L319.373 129.68L319.376 129.676L319.543 127.75L320.357 118.368L320.359 118.34C320.359 118.34 320.274 118.293 320.109 118.209Z" fill="#DB6F26"/>
<path d="M334.721 78.9907V130.655H332.794C331.425 130.453 330.06 130.235 328.734 129.998H328.731C326.466 129.594 324.317 129.14 322.446 128.642C321.895 128.495 321.367 128.345 320.868 128.19C320.568 128.097 320.277 128.003 320 127.907C319.846 127.856 319.691 127.802 319.546 127.748C317.457 126.99 316.102 126.158 315.935 125.27C315.785 124.46 316.158 122.531 316.873 119.911L316.875 119.907C317.002 119.433 317.142 118.934 317.295 118.415C317.363 118.176 317.436 117.935 317.508 117.686C317.539 117.593 317.567 117.496 317.595 117.4L317.63 117.281C317.656 117.196 317.684 117.11 317.707 117.025C317.715 117.003 317.722 116.981 317.726 116.961V116.959C317.897 116.403 318.073 115.834 318.258 115.247C318.526 114.412 318.805 113.547 319.098 112.659C319.48 111.498 319.885 110.3 320.305 109.075C320.429 108.719 320.551 108.363 320.676 108.002C321.116 106.729 321.574 105.436 322.033 104.141C323.219 100.812 324.45 97.465 325.592 94.4063C325.937 93.4843 326.272 92.5915 326.598 91.7305L326.6 91.7281C326.823 91.128 327.043 90.5475 327.257 89.9865C327.88 88.3376 328.323 86.757 328.736 85.3301V85.3277C329.352 83.1934 329.908 81.4103 330.914 80.2834C331.5 79.6273 332.241 79.1956 333.24 79.0443C333.298 79.037 333.357 79.0297 333.418 79.0224H333.422H333.425C333.619 79.0005 333.821 78.9907 334.03 78.9907H334.721Z" fill="#FFA969"/>
<path d="M328.732 129.998H328.73L325.386 118.533L325.331 118.345C325.331 118.345 324.955 118.305 324.278 118.242C323.897 118.206 323.424 118.16 322.865 118.112C321.981 118.033 320.886 117.939 319.637 117.843C319.6 117.841 319.566 117.839 319.529 117.836H319.526C319.471 117.831 319.413 117.827 319.355 117.824H319.353C319.12 117.803 318.88 117.786 318.635 117.766H318.633C318.522 117.759 318.411 117.752 318.298 117.742C318.039 117.723 317.776 117.706 317.508 117.685C315.624 117.553 313.509 117.421 311.297 117.315C310.755 117.288 310.203 117.267 309.649 117.243C309.455 117.233 309.261 117.228 309.065 117.219C307.744 117.171 306.403 117.13 305.068 117.108H305.066C303.258 117.079 301.464 117.079 299.746 117.118H299.744C299.608 117.123 299.474 117.127 299.337 117.13C298.485 117.154 297.652 117.188 296.848 117.236C295.322 117.324 293.9 117.457 292.637 117.644C291.863 117.759 291.15 117.894 290.51 118.052C289.051 118.41 287.968 118.888 287.414 119.508C286.207 120.86 285.329 125.189 284.694 130.655H328.924L328.732 129.998Z" fill="#FFA969"/>
<path d="M316.367 95.9649C316.367 95.9649 314.473 96.6684 312.979 99.8218C311.486 102.973 310.868 111.46 310.127 111.541C309.391 111.622 303.773 110.485 303.773 110.485L303.903 111.94C303.903 111.94 309.745 115.985 310.966 115.259C312.185 114.532 315.557 104.728 315.774 103.244C315.992 101.761 316.367 95.9649 316.367 95.9649Z" fill="#997054"/>
<path d="M329.419 94.8689C329.419 94.8689 321.82 93.1933 316.371 95.9642C316.371 95.9642 312.877 103.791 312.985 105.117C313.092 106.446 314.307 111.976 313.205 114.063C312.106 116.153 323.312 119.863 325.333 118.57C327.353 117.277 329.75 96.3085 329.419 94.8689Z" fill="white"/>
<path d="M302.156 126.513C301.642 127.749 300.962 129.152 300.197 130.654H289.866C291.051 124.224 292.11 119.747 292.637 117.643C292.863 116.743 292.992 116.278 292.992 116.278C293.495 115.353 294.1 114.841 294.758 114.639L294.767 114.637C296.156 114.221 297.785 115.188 299.237 116.6C299.409 116.768 299.579 116.94 299.743 117.119H299.745C300.293 117.71 300.81 118.353 301.261 118.991C302.3 120.445 303.021 121.873 303.12 122.603C303.241 123.476 302.851 124.839 302.156 126.513Z" fill="#163560"/>
<path d="M294.69 114.676C294.69 114.676 297.014 113.288 302.296 114.483C307.575 115.676 311.898 118.529 311.898 118.529L298.429 119.111L294.69 114.676Z" fill="#163560"/>
<path d="M327.314 94.8505C327.314 94.8505 330.686 94.2069 331.151 97.0618C331.621 99.9167 331.207 117.15 328.626 118.019C326.045 118.887 315.457 114.041 315.457 114.041L315.778 112.2C315.778 112.2 325.905 113.635 326.27 113.477C326.638 113.318 327.314 94.8505 327.314 94.8505Z" fill="#997054"/>
<path d="M301.26 107.84L300.779 103.245L307.027 111.81C307.027 111.81 304.411 113.166 304.259 112.905C304.104 112.645 301.26 107.84 301.26 107.84Z" fill="#B5453C"/>
<path d="M310.61 107.84L316.38 117.008H306.687L301.261 107.84H310.61Z" fill="#B5453C"/>
<path d="M301.264 107.839L300.809 103.286L304.073 107.538L301.264 107.839Z" fill="white"/>
<path d="M316.084 116.54L316.526 116.21L310.793 107.343L310.609 107.84L316.084 116.54Z" fill="#EFDECE"/>
<path d="M310.794 107.341L301.663 107.608L301.263 107.839H310.61L310.794 107.341Z" fill="#FCECDB"/>
<path d="M313.854 130.657H303.521C303.02 129.174 302.565 127.791 302.153 126.513C301.114 123.278 300.353 120.73 299.87 119.051C299.615 118.154 299.436 117.506 299.336 117.132C299.267 116.886 299.234 116.757 299.234 116.757C299.234 116.706 299.234 116.655 299.236 116.602C299.252 115.408 299.646 114.614 300.283 114.125C300.316 114.1 300.349 114.077 300.384 114.052L300.387 114.049C301.435 113.328 303.073 113.36 304.762 113.759H304.764C306.274 114.114 307.821 114.762 309.02 115.424C309.995 115.961 310.737 116.51 311.048 116.916C311.07 116.946 311.092 116.976 311.116 117.01C311.174 117.1 311.236 117.204 311.296 117.317C311.451 117.614 311.602 117.99 311.748 118.435C311.757 118.458 311.764 118.479 311.77 118.502L311.781 118.534C312.364 120.342 312.883 123.22 313.335 126.497V126.499C313.521 127.834 313.694 129.234 313.854 130.657Z" fill="#1C468A"/>
<path d="M300.386 114.053C300.386 114.053 304.386 110.317 320.706 118.36L307.304 118.571L300.386 114.053Z" fill="#1C468A"/>
<path d="M315.775 112.202C315.775 112.202 314.291 111.166 313.743 111.087C313.101 110.992 312.41 110.151 312.479 110.631C312.546 111.111 313.257 111.73 313.453 111.929C313.649 112.131 312.343 112.096 311.815 111.832C311.57 111.706 310.256 111.352 310.265 111.843C310.269 112.138 310.786 113.556 312.083 113.862C312.682 114.004 315.565 114.087 315.565 114.087L315.775 112.202Z" fill="#997054"/>
<path d="M320.234 96.998C320.618 97.2907 322.297 97.6501 323.643 96.9575C324.908 96.3053 325.487 94.8938 325.297 94.3178C325.107 93.7394 324.521 93.5466 323.881 90.0667L323.634 90.1715L319.497 91.9305C319.497 91.9305 319.859 93.3205 320.113 94.6463C320.325 95.7602 320.01 96.829 320.234 96.998Z" fill="#997054"/>
<path d="M319.498 91.9312C319.498 91.9312 319.86 93.3191 320.112 94.6478C322.505 94.0865 323.352 91.5428 323.634 90.1715L319.498 91.9312Z" fill="#5E4A3D"/>
<path d="M318.929 93.351C318.929 93.351 324.645 92.2918 323.955 88.5989C323.268 84.906 323.54 82.2818 319.862 82.8019C316.185 83.322 315.742 84.8752 315.683 86.1647C315.626 87.4566 317.425 93.5315 318.929 93.351Z" fill="#997054"/>
<path d="M326.216 94.5473C326.216 94.5473 329.93 94.6055 330.904 95.4393C331.88 96.2731 332.332 108.204 332.332 108.204C332.332 108.204 330.571 107.712 328.994 108.09C327.414 108.468 325.331 108.09 325.331 108.09L326.216 94.5473Z" fill="white"/>
<path d="M319.938 94.7635C319.938 94.7635 315.257 95.7389 314.187 97.0333C313.119 98.3253 310.966 104.832 310.966 104.832C310.966 104.832 311.798 104.963 312.226 105.564C312.652 106.166 314.052 105.883 314.052 105.883L319.938 94.7635Z" fill="white"/>
<path d="M311.403 130.655C312.043 129.205 312.697 127.81 313.337 126.498V126.496C314.617 123.88 315.853 121.603 316.873 119.911L316.875 119.907C317.217 119.336 317.539 118.832 317.825 118.405C317.954 118.213 318.078 118.037 318.195 117.876C318.228 117.83 318.263 117.788 318.298 117.744C318.317 117.72 318.333 117.698 318.355 117.674C318.394 117.625 318.434 117.576 318.481 117.53C318.507 117.498 318.537 117.466 318.568 117.437C318.589 117.413 318.61 117.391 318.631 117.371C319.161 116.844 319.829 116.456 320.596 116.176C321.447 115.871 322.415 115.698 323.451 115.63C324.45 115.564 325.51 115.593 326.581 115.686H326.584C327.669 115.778 328.762 115.939 329.817 116.134C330.18 116.203 330.534 116.271 330.886 116.347L330.897 116.349H330.907C332.337 116.652 333.655 117 334.721 117.31V130.655H311.403Z" fill="#F99746"/>
<path d="M319.044 130.655C319.154 130.328 319.264 129.999 319.377 129.679L319.379 129.675C319.585 129.072 319.794 128.481 320 127.907C320.586 126.285 321.161 124.79 321.693 123.48C322.481 121.545 323.179 120.019 323.686 119.087C323.735 119.001 323.782 118.916 323.836 118.834C323.967 118.621 324.115 118.425 324.279 118.242C324.478 118.013 324.699 117.808 324.938 117.625C325.32 117.332 325.749 117.093 326.22 116.903C327.235 116.496 328.438 116.315 329.76 116.313C330.126 116.313 330.501 116.325 330.886 116.347L330.897 116.349H330.907C331.542 116.391 332.192 116.464 332.862 116.564C332.975 116.581 333.085 116.598 333.197 116.617C333.223 116.622 333.249 116.627 333.282 116.632C333.758 116.713 334.238 116.805 334.721 116.91V130.655H319.044Z" fill="#ED7D2B"/>
<path d="M281.304 72.7252H334.752V130.631H281.304V72.7252ZM281.304 55.775H334.752V69.5161H281.304V55.775ZM338.696 130.631H337.493V72.7252V69.5161V52.9233H278.563V69.5161V72.7252V130.631H277.36C274.352 130.631 271.916 133.167 271.916 136.294V136.492H344.14V136.294C344.14 133.167 341.702 130.631 338.696 130.631Z" fill="#7ED787"/>
<path d="M333.948 59.7057H282.275V57.0013H333.948V59.7057Z" fill="white"/>
<path d="M333.948 63.9511H282.275V61.2491H333.948V63.9511Z" fill="white"/>
<path d="M333.948 68.1988H282.275V65.4944H333.948V68.1988Z" fill="white"/>
<path d="M333.948 72.1763H282.275V69.4719H333.948V72.1763Z" fill="white"/>
<path d="M333.948 76.648H282.275V73.9436H333.948V76.648Z" fill="white"/>
<path d="M285.171 78.8413H284.671V55.7313H285.171V78.8413Z" fill="white"/>
<path d="M331.849 78.8405H331.349V55.7287H331.849V78.8405Z" fill="white"/>
<path d="M337.325 189.492V267.2H281.135V189.492H337.325Z" fill="#F9DDBF"/>
<path d="M310.32 190.891C310.32 190.891 310.454 213.855 288.064 233.266C288.064 233.266 292.729 258.577 292.064 265.749H281.306V190.891H310.32Z" fill="white"/>
<path d="M312.273 230.01C312.273 230.01 309.949 230.274 308.581 232.673C307.215 235.072 304.569 245.449 302.636 247.567C300.7 249.685 293.882 253.921 293.882 253.921L295.614 255.086C295.614 255.086 305.992 251.803 307.519 249.896C309.046 247.991 311.202 237.773 311.202 237.773L312.273 230.01Z" fill="#997054"/>
<path d="M314.568 215.407C314.568 215.407 314.701 211.987 319.433 211.774C324.166 211.563 327.572 215.713 327.726 217.979C327.88 220.246 326.914 223.771 330.019 226.112C333.121 228.451 331.595 239.344 324.266 239.344C316.938 239.344 312.572 238.9 312.546 234.965C312.516 231.029 312.399 227.462 315.31 226.369C318.219 225.276 314.568 215.407 314.568 215.407Z" fill="#233862"/>
<path d="M322.568 259.183C322.568 259.183 322.558 259.215 322.54 259.274C322.533 259.298 322.524 259.324 322.515 259.356C322.497 259.424 322.47 259.511 322.44 259.619C322.431 259.643 322.424 259.67 322.415 259.698C322.39 259.784 322.361 259.883 322.329 259.991C322.311 260.055 322.293 260.122 322.27 260.194C322.104 260.761 321.88 261.55 321.61 262.499C321.542 262.744 321.469 263.001 321.394 263.267C321.358 263.399 321.319 263.534 321.283 263.672C321.269 263.717 321.256 263.765 321.244 263.813C321.217 263.906 321.19 264 321.165 264.096C321.135 264.203 321.103 264.313 321.074 264.426C321.004 264.683 320.929 264.948 320.856 265.218C320.683 265.849 320.504 266.514 320.32 267.201H309.25C309.277 266.478 309.309 265.796 309.35 265.157C309.359 265.007 309.368 264.862 309.377 264.717C309.425 263.996 309.479 263.331 309.534 262.73C309.55 262.571 309.563 262.416 309.577 262.264C309.609 261.96 309.638 261.673 309.67 261.402C309.674 261.353 309.681 261.305 309.688 261.257C309.693 261.207 309.699 261.159 309.704 261.112C309.738 260.825 309.772 260.562 309.804 260.323C309.815 260.244 309.827 260.166 309.836 260.091C309.845 260.017 309.858 259.943 309.867 259.873C309.876 259.804 309.886 259.738 309.895 259.674C309.906 259.611 309.915 259.551 309.924 259.491C309.929 259.461 309.931 259.434 309.938 259.406C309.951 259.322 309.963 259.244 309.974 259.173C309.983 259.125 309.992 259.079 309.997 259.037C310.004 258.996 310.013 258.956 310.017 258.92C310.044 258.771 310.09 258.631 310.149 258.506C310.165 258.474 310.183 258.442 310.199 258.412C310.217 258.382 310.235 258.353 310.253 258.325C310.294 258.265 310.337 258.209 310.385 258.156C310.405 258.132 310.43 258.108 310.453 258.086C310.478 258.06 310.503 258.036 310.528 258.014C310.551 257.996 310.569 257.98 310.589 257.964C310.626 257.935 310.662 257.907 310.7 257.881C310.725 257.863 310.75 257.847 310.778 257.831C310.832 257.797 310.891 257.763 310.95 257.736C310.98 257.719 311.014 257.704 311.046 257.69C311.082 257.672 311.12 257.656 311.159 257.64C311.195 257.626 311.232 257.612 311.27 257.598C311.304 257.584 311.341 257.572 311.377 257.56C311.502 257.519 311.636 257.483 311.776 257.453C311.808 257.445 311.842 257.439 311.876 257.433C311.928 257.421 311.978 257.411 312.033 257.403C312.103 257.393 312.174 257.381 312.246 257.371C312.294 257.365 312.342 257.359 312.392 257.355C312.43 257.351 312.471 257.347 312.512 257.343C312.578 257.337 312.648 257.331 312.716 257.327C312.796 257.323 312.88 257.319 312.964 257.316C313.349 257.301 313.76 257.311 314.185 257.339C314.282 257.345 314.38 257.353 314.48 257.361C314.643 257.375 314.807 257.391 314.972 257.409C315.208 257.435 315.449 257.465 315.692 257.501H315.694C315.717 257.503 315.74 257.507 315.762 257.51C315.876 257.527 315.987 257.544 316.101 257.562C316.441 257.616 316.782 257.678 317.12 257.744C317.254 257.769 317.388 257.797 317.519 257.825L317.887 257.903C318.23 257.976 318.566 258.054 318.893 258.134C319.015 258.163 319.133 258.193 319.251 258.223C319.283 258.229 319.312 258.237 319.344 258.247C319.403 258.261 319.46 258.275 319.517 258.291C319.601 258.313 319.687 258.335 319.771 258.357C319.907 258.394 320.041 258.43 320.173 258.464C320.223 258.478 320.275 258.492 320.327 258.506C320.409 258.53 320.491 258.552 320.568 258.574C320.783 258.633 320.988 258.693 321.174 258.749C321.26 258.775 321.344 258.798 321.421 258.822C321.489 258.842 321.555 258.862 321.619 258.882L321.648 258.89C321.703 258.908 321.757 258.924 321.807 258.938C321.855 258.954 321.902 258.968 321.946 258.982C322.002 258.999 322.052 259.016 322.1 259.031C322.134 259.042 322.166 259.051 322.195 259.061C322.229 259.071 322.261 259.081 322.291 259.091C322.47 259.149 322.568 259.183 322.568 259.183Z" fill="#1C468A"/>
<path d="M322.568 259.183C322.568 259.183 322.558 259.215 322.54 259.274C322.533 259.298 322.524 259.324 322.515 259.356C322.497 259.424 322.47 259.511 322.44 259.619C322.431 259.643 322.424 259.67 322.415 259.698C322.39 259.784 322.361 259.883 322.329 259.991C322.311 260.055 322.293 260.122 322.27 260.194C322.104 260.761 321.88 261.55 321.61 262.499C321.542 262.744 321.469 263.001 321.394 263.267C321.358 263.399 321.319 263.534 321.283 263.672C321.269 263.717 321.256 263.765 321.244 263.813C321.217 263.906 321.19 264 321.165 264.096C321.135 264.203 321.103 264.313 321.074 264.426C321.004 264.683 320.929 264.948 320.856 265.218C320.683 265.849 320.504 266.514 320.32 267.201H309.25C309.277 266.478 309.309 265.796 309.35 265.157C309.359 265.007 309.368 264.862 309.377 264.717C309.425 263.996 309.479 263.331 309.534 262.73C309.55 262.571 309.563 262.416 309.577 262.264C309.609 261.96 309.638 261.673 309.67 261.402C309.674 261.353 309.681 261.305 309.688 261.257C309.693 261.207 309.699 261.159 309.704 261.112C309.738 260.825 309.772 260.562 309.804 260.323C309.815 260.244 309.827 260.166 309.836 260.091C309.845 260.017 309.858 259.943 309.867 259.873C309.876 259.804 309.886 259.738 309.895 259.674C309.906 259.611 309.915 259.551 309.924 259.491C309.929 259.461 309.931 259.434 309.938 259.406C309.951 259.322 309.963 259.244 309.974 259.173C309.983 259.125 309.992 259.079 309.997 259.037C310.004 258.996 310.013 258.956 310.017 258.92C310.044 258.771 310.09 258.631 310.149 258.506C310.165 258.474 310.183 258.442 310.199 258.412C310.217 258.382 310.235 258.353 310.253 258.325C310.294 258.265 310.337 258.209 310.385 258.156C310.405 258.132 310.43 258.108 310.453 258.086C310.478 258.06 310.503 258.036 310.528 258.014C310.551 257.996 310.569 257.98 310.589 257.964C310.626 257.935 310.662 257.907 310.7 257.881C310.725 257.863 310.75 257.847 310.778 257.831C310.832 257.797 310.891 257.763 310.95 257.736C310.98 257.719 311.014 257.704 311.046 257.69C311.082 257.672 311.12 257.656 311.159 257.64C311.195 257.626 311.232 257.612 311.27 257.598C311.304 257.584 311.341 257.572 311.377 257.56C311.502 257.519 311.636 257.483 311.776 257.453C311.808 257.445 311.842 257.439 311.876 257.433C311.928 257.421 311.978 257.411 312.033 257.403C312.103 257.393 312.174 257.381 312.246 257.371C312.294 257.365 312.342 257.359 312.392 257.355C312.43 257.351 312.471 257.347 312.512 257.343C312.578 257.337 312.648 257.331 312.716 257.327C312.796 257.323 312.88 257.319 312.964 257.316C313.349 257.301 313.76 257.311 314.185 257.339C314.282 257.345 314.38 257.353 314.48 257.361C314.643 257.375 314.807 257.391 314.972 257.409C315.208 257.435 315.449 257.465 315.692 257.501H315.694C315.717 257.503 315.74 257.507 315.762 257.51C315.876 257.527 315.987 257.544 316.101 257.562C316.441 257.616 316.782 257.678 317.12 257.744C317.254 257.769 317.388 257.797 317.519 257.825L317.887 257.903C318.23 257.976 318.566 258.054 318.893 258.134C319.015 258.163 319.133 258.193 319.251 258.223C319.283 258.229 319.312 258.237 319.344 258.247C319.403 258.261 319.46 258.275 319.517 258.291C319.601 258.313 319.687 258.335 319.771 258.357C319.907 258.394 320.041 258.43 320.173 258.464C320.223 258.478 320.275 258.492 320.327 258.506C320.409 258.53 320.491 258.552 320.568 258.574C320.783 258.633 320.988 258.693 321.174 258.749C321.26 258.773 321.344 258.798 321.421 258.822C321.489 258.842 321.555 258.862 321.619 258.882L321.648 258.89C321.703 258.906 321.757 258.924 321.807 258.938C321.855 258.954 321.902 258.968 321.946 258.982C322.002 258.999 322.052 259.016 322.1 259.031C322.134 259.042 322.166 259.051 322.195 259.061C322.229 259.071 322.261 259.081 322.291 259.091C322.47 259.149 322.568 259.183 322.568 259.183Z" fill="#163560"/>
<path d="M328.035 267.201H317.093C316.821 265.602 316.565 264.125 316.335 262.841C315.945 260.646 315.636 259.007 315.496 258.271C315.443 257.988 315.415 257.837 315.415 257.837C315.415 257.837 315.517 257.711 315.694 257.5H315.696C316.83 256.171 321.118 251.457 323.167 253.621C323.501 253.975 323.859 254.351 324.221 254.761C325.445 256.151 326.733 257.912 327.485 260.395C328.038 262.226 328.303 264.448 328.035 267.201Z" fill="#1C468A"/>
<path d="M314.57 231.616L316.421 234.505L320.15 234.315L321.872 229.681C321.872 229.681 321.34 229.578 321.093 223.801L316.439 225.278C316.439 225.278 316.686 226.783 316.355 228.423C316.126 229.568 315.623 230.788 314.57 231.616Z" fill="#997054"/>
<path d="M313.988 228.751C314.225 228.751 318.612 227.224 324.873 229.878C324.873 229.878 321.9 247.57 323.177 250.947C324.452 254.323 324.939 257.321 324.939 257.321L311.088 257.498C311.088 257.498 311.282 245.908 310.643 241.808C310.005 237.705 313.988 228.751 313.988 228.751Z" fill="#997054"/>
<path d="M327.726 260.015C327.493 260.522 326.971 260.922 326.333 261.243C325.5 261.659 324.478 261.94 323.664 262.133C323.033 262.284 322.064 262.453 320.948 262.583C320.352 262.652 319.716 262.712 319.072 262.75C318.98 262.756 318.888 262.76 318.798 262.766C314.625 262.981 309.953 262.875 309.343 260.811C309.286 260.614 309.286 260.218 309.323 259.694C309.401 258.629 309.64 257.037 309.873 255.546C310.094 254.12 310.31 252.787 310.372 252.096C310.692 248.435 310.02 243.182 309.923 239.78C309.843 236.943 312.273 230.01 312.273 230.01C312.273 230.01 312.736 229.725 314.54 229.466C314.54 229.466 314.8 232.869 316.481 233.157C319.39 233.657 321.73 230.888 322.416 229.771C322.416 229.771 325.756 230.647 326.734 231.81C327.438 232.646 327.346 234.642 327.137 235.9C327.072 236.298 326.994 236.623 326.927 236.81C326.718 237.377 325.938 241.55 325.578 243.212C325.572 243.256 325.565 243.293 325.555 243.329C325.53 243.441 325.509 243.538 325.491 243.62L325.486 243.626C325.468 243.715 325.45 243.785 325.436 243.829C325.429 243.857 325.417 243.885 325.41 243.911L325.408 243.917C324.895 245.622 324.584 247.364 324.766 249.5C324.787 249.751 324.842 250.054 324.927 250.394C325.39 252.876 327.323 257.769 327.726 260.015Z" fill="#F99746"/>
<path d="M316.356 228.423C318.28 228.262 321.092 223.801 321.092 223.801L316.437 225.278C316.437 225.278 316.684 226.783 316.356 228.423Z" fill="#674A37"/>
<path d="M314.543 229.466C314.543 229.466 310.075 229.964 308.583 232.147C307.088 234.331 306.14 237.606 306.14 237.606C306.14 237.606 307.206 240.934 310.319 240.518C313.435 240.102 314.543 229.466 314.543 229.466Z" fill="#F99746"/>
<path d="M315.659 226.59C315.659 226.59 321.34 226.41 321.177 222.73C321.019 219.051 321.641 216.549 318.007 216.507C314.373 216.467 313.73 217.904 313.497 219.147C313.264 220.389 314.176 226.542 315.659 226.59Z" fill="#997054"/>
<path d="M316.095 216.042C316.095 216.042 316.268 217.262 318.507 218.861C320.745 220.459 321.131 224.182 321.131 224.182C321.131 224.182 322.823 217.569 320.797 216.08C318.773 214.589 316.095 216.042 316.095 216.042Z" fill="#233862"/>
<path d="M317.93 213.955C317.93 213.955 315.023 213.669 312.956 217.063C312.069 218.526 312.761 220.809 313.682 222.008C313.682 222.008 313.985 218.888 315.57 217.839C317.157 216.79 317.93 213.955 317.93 213.955Z" fill="#233862"/>
<path d="M316.96 224.444C316.96 224.444 316.909 224.898 315.844 224.956C315.844 224.956 314.95 225.003 314.923 224.516C314.923 224.516 315.746 224.068 316.96 224.444Z" fill="white"/>
<path d="M298.502 248.955C298.502 248.955 297.004 247.135 298.41 245.981C298.41 245.981 299.436 245.334 300.273 245.386C300.273 245.386 299.086 247.456 299.471 247.663C299.854 247.868 300.632 245.256 300.632 245.256C300.632 245.256 302.971 245.021 303.723 245.398C303.723 245.398 301.725 247.098 302.145 247.199C302.564 247.301 304.723 245.63 304.723 245.63C304.723 245.63 306.899 246.017 306.784 247.396C306.669 248.778 305.916 249.204 305.588 249.168C305.26 249.13 303.332 248.366 303.291 248.646C303.249 248.927 304.408 249.845 305.221 249.887C305.221 249.887 303.686 251.646 302.667 251.139C301.649 250.631 301.56 249.827 300.925 249.524C300.291 249.222 299.749 249.224 300.01 249.53C300.273 249.839 301.423 250.137 301.786 250.806C302.149 251.475 302.475 251.927 301.421 251.762C300.367 251.597 298.652 250.794 298.576 249.875C298.502 248.955 298.502 248.955 298.502 248.955Z" fill="#00E3AB"/>
<path d="M305.717 247.433C305.717 247.433 299.809 247.196 298.505 248.954C298.505 248.954 298.214 249.854 297.326 250.672L297.19 251.064C297.19 251.064 298.212 249.941 298.578 249.874C298.578 249.874 298.006 247.696 305.717 247.433Z" fill="#82B378"/>
<path d="M297.326 250.672C297.326 250.672 296.056 251.648 295.969 253.392L296.2 253.413C296.2 253.413 296.605 251.61 297.337 250.905C298.07 250.201 297.326 250.672 297.326 250.672Z" fill="#82B378"/>
<path d="M293.262 246.668C293.262 246.668 295.647 245.278 294.533 243.395C294.533 243.395 293.643 242.237 292.692 241.94C292.692 241.94 293.199 244.751 292.692 244.816C292.182 244.882 292.34 241.641 292.34 241.641C292.34 241.641 289.831 240.385 288.844 240.485C288.844 240.485 290.402 243.228 289.892 243.162C289.385 243.097 287.638 240.32 287.638 240.32C287.638 240.32 285.062 239.822 284.649 241.411C284.235 242.997 284.904 243.791 285.285 243.891C285.666 243.99 288.114 243.957 288.051 244.287C287.985 244.617 286.335 245.147 285.411 244.848C285.411 244.848 286.428 247.462 287.764 247.329C289.099 247.197 289.513 246.337 290.338 246.272C291.166 246.204 291.768 246.437 291.355 246.668C290.943 246.899 289.543 246.743 288.878 247.335C288.211 247.924 287.668 248.288 288.907 248.553C290.147 248.818 292.374 248.652 292.818 247.659C293.262 246.668 293.262 246.668 293.262 246.668Z" fill="#00E3AB"/>
<path d="M285.827 241.906C285.827 241.906 292.5 244.155 293.263 246.667C293.263 246.667 293.23 247.792 293.899 249.082V249.578C293.899 249.578 293.201 247.892 292.817 247.659C292.817 247.659 294.312 245.477 285.827 241.906Z" fill="#82B378"/>
<path d="M293.9 249.082C293.9 249.082 294.929 250.708 294.341 252.687L294.079 252.613C294.079 252.613 294.335 250.431 293.797 249.336C293.257 248.24 293.9 249.082 293.9 249.082Z" fill="#82B378"/>
<path d="M297.058 244.752C297.058 244.752 293.916 242.921 295.381 240.436C295.381 240.436 296.553 238.911 297.81 238.519C297.81 238.519 297.141 242.224 297.81 242.311C298.481 242.397 298.272 238.127 298.272 238.127C298.272 238.127 301.582 236.469 302.881 236.6C302.881 236.6 300.827 240.219 301.499 240.132C302.168 240.044 304.472 236.383 304.472 236.383C304.472 236.383 307.865 235.728 308.41 237.821C308.954 239.913 308.075 240.96 307.573 241.089C307.07 241.221 303.845 241.177 303.928 241.613C304.013 242.049 306.189 242.747 307.404 242.353C307.404 242.353 306.066 245.797 304.304 245.624C302.544 245.449 302.002 244.316 300.911 244.228C299.822 244.141 299.026 244.447 299.57 244.752C300.115 245.057 301.96 244.851 302.839 245.63C303.718 246.408 304.431 246.888 302.797 247.236C301.164 247.585 298.23 247.368 297.642 246.06C297.058 244.752 297.058 244.752 297.058 244.752Z" fill="#00E3AB"/>
<path d="M306.858 238.476C306.858 238.476 298.06 241.44 297.054 244.753C297.054 244.753 297.097 246.234 296.217 247.934V248.589C296.217 248.589 297.138 246.365 297.641 246.061C297.641 246.061 295.671 243.184 306.858 238.476Z" fill="#00E3AB"/>
<path d="M296.217 247.934C296.217 247.934 294.86 250.078 295.634 252.687L295.98 252.59C295.98 252.59 295.642 249.715 296.352 248.27C297.063 246.825 296.217 247.934 296.217 247.934Z" fill="#82B378"/>
<path d="M303.103 251.943C303.103 255.478 300.349 258.347 296.949 258.347C296.241 258.347 295.557 258.221 294.923 257.99C292.519 257.118 290.794 254.74 290.794 251.943H303.103Z" fill="#1C468A"/>
<path d="M296.947 258.347C296.699 258.379 297.958 258.347 297.697 258.347C294.3 258.347 291.544 255.478 291.544 251.943H293.073C293.073 255.21 293.908 257.955 296.947 258.347Z" fill="#285BA5"/>
<path d="M303.191 258.671H290.711C290.711 258.454 290.797 258.255 290.932 258.113C291.07 257.97 291.261 257.88 291.47 257.88H302.431C302.851 257.88 303.191 258.235 303.191 258.671Z" fill="#163560"/>
<path d="M303.244 252.138H290.592V251.943H303.244V252.138Z" fill="#163560"/>
<path d="M303.491 254.329C303.352 253.988 302.016 253.652 301.485 253.413C301.485 253.413 301.145 253.666 301.599 254.082C301.722 254.196 301.949 254.369 302.163 254.526C302.099 254.508 302.034 254.492 301.971 254.474C301.493 254.339 298.413 255.432 298.048 256.144C297.683 256.855 299.814 258.631 301.409 258.073C302.226 257.787 304.9 257.281 304.9 257.281L304.452 255.032C304.452 255.032 303.631 254.671 303.491 254.329Z" fill="#997054"/>
<path d="M327.243 233.255C327.243 233.255 327.876 237.825 323.296 244.601C318.716 251.379 318.984 251.803 316.356 253.603C313.729 255.402 304.899 257.281 304.899 257.281L304.45 255.032C304.45 255.032 313.016 249.301 313.831 248.17C314.646 247.038 320.149 234.316 320.149 234.316L327.243 233.255Z" fill="#997054"/>
<path d="M322.846 231.559C322.846 231.559 319.19 234.539 318.221 235.996C317.248 237.451 316.355 240.71 316.355 240.71C316.355 240.71 320.18 243.204 326.776 241.402C326.776 241.402 328.534 232.914 326.735 231.809C324.936 230.706 323.268 231.559 323.268 231.559H322.846Z" fill="#F99746"/>
<path d="M311.784 190.892C311.784 190.892 315.876 209.695 334.752 216.35C334.752 216.35 334.574 245.33 332.441 252.956C330.309 260.58 329.775 265.749 329.775 265.749H334.752V190.892H311.784Z" fill="white"/>
<path d="M281.304 207.843H334.752V265.75H281.304V207.843ZM281.304 190.892H334.752V204.636H281.304V190.892ZM338.696 265.75H337.493V207.843V204.636V188.042H278.563V204.636V207.843V265.75H277.36C274.352 265.75 271.916 268.284 271.916 271.413V271.61H344.14V271.413C344.14 268.284 341.702 265.75 338.696 265.75Z" fill="#7ED787"/>
<path d="M156.6 319.813H367.724V289.75H156.6V319.813Z" fill="#60CA6B"/>
<path d="M206.745 319.994C206.745 319.994 202.834 305.367 186.58 300.458C170.328 295.549 171.377 298.004 156.696 289.277C142.016 280.548 118.947 286.002 114.229 293.095C109.51 300.186 98.5004 304.004 83.2961 303.731C68.0918 303.458 67.3234 318.864 67.3234 318.864L206.745 319.994Z" fill="#B2F6B9"/>
<path d="M478.559 320.273H0.587309C0.264258 320.273 0 319.998 0 319.662V319.335C0 319.001 0.264258 318.724 0.587309 318.724H478.559C478.882 318.724 479.147 319.001 479.147 319.335V319.662C479.147 319.998 478.882 320.273 478.559 320.273Z" fill="#2E3552"/>
<path d="M190.445 267.201H246.634V189.492H190.445V267.201Z" fill="#E6F0FD"/>
<path d="M240.573 265.736H190.573V190.892H240.573V265.736Z" fill="#FFCB9C"/>
<path d="M213.6 256.836C213.6 256.836 210.518 261.209 210.518 265.773H231.438C231.438 265.773 230.317 258.681 225.554 256.836C220.79 254.988 213.6 256.836 213.6 256.836Z" fill="#233862"/>
<path d="M239.2 233.266C239.2 233.266 235.911 241.973 235.544 242.28C234.555 243.11 228.476 233.454 227.542 231.768C226.609 230.081 220.838 231.523 220.346 228.389C220.195 227.426 219.889 226.373 219.887 225.698C219.885 225.616 219.887 225.533 219.887 225.451C219.893 224.842 219.933 224.181 220.017 223.475L219.728 223.498L214.888 223.887C214.888 223.887 215.374 225.109 215.211 226.568C215.157 227.046 215.138 227.944 215.083 228.823C215.02 229.803 214.379 230.637 213.474 230.914C211.4 231.547 208.83 232.498 208.382 233.698C207.51 236.033 205.549 246.582 205.176 250.157C204.803 253.732 201.316 264.219 201.316 264.219H203.059C203.059 264.219 209.595 252.779 210.156 250.991C210.328 250.444 210.952 248.254 211.733 245.487C212.462 248.497 213.501 251.503 213.724 252.723C214.119 254.861 210.344 261.758 210.717 263.671C211.09 265.582 231.076 266.617 230.805 263.671C230.531 260.725 227.715 255.735 227.154 253.404C226.731 251.644 227.711 245.776 228.015 242.29C231.069 245.919 235.219 249.303 236.493 248.61C239.761 246.829 240.788 233.679 240.788 233.679L239.2 233.266Z" fill="#C68050"/>
<path d="M220.346 228.389C216.851 227.858 214.88 224.034 214.88 224.034C216.305 223.869 218.295 224.623 219.887 225.451C219.887 225.533 219.885 225.616 219.887 225.698C219.889 226.373 220.113 227.444 220.346 228.389Z" fill="#94603D"/>
<path d="M220.392 226.938C220.392 226.938 214.117 226.267 214.578 222.208C215.039 218.148 214.539 215.327 218.565 215.584C222.593 215.84 223.193 217.485 223.356 218.878C223.519 220.272 222.036 227.008 220.392 226.938Z" fill="#C68050"/>
<path d="M216.573 216.495C216.573 216.495 215.386 217.732 215.188 218.816C215.129 219.142 215.606 222.164 215.573 222.597C215.152 222.597 215.073 221.037 215.152 220.518C215.089 220.359 215.044 220.256 215.042 220.284C214.97 221.201 214.869 222.076 214.476 222.077C214.476 222.077 212.773 218.962 214.045 216.926C215.394 214.766 216.573 216.495 216.573 216.495Z" fill="#233862"/>
<path d="M219.105 224.567C219.105 224.567 219.262 225.153 219.646 225.238C220.031 225.326 221.035 225.439 221.125 225.362C221.215 225.284 221.515 224.766 221.515 224.766C221.515 224.766 219.904 224.38 219.105 224.567Z" fill="white"/>
<path d="M214.92 217.81C214.92 217.81 215.417 216.517 214.92 216.084C214.424 215.651 219.825 214.941 220.199 214.871C220.573 214.801 221.217 214.385 222.145 215.112C223.073 215.84 222.573 215.84 223.073 217.399V217.919L214.92 217.81Z" fill="#233862"/>
<path d="M239.135 233.758C239.135 233.758 239.022 230.659 239.338 229.596C239.656 228.531 240.345 226.817 240.5 226.888C240.655 226.96 240.961 229.283 240.831 229.805C240.702 230.324 240.963 231.56 241.162 231.314C241.361 231.067 241.672 229.419 241.933 229.516C242.195 229.614 241.952 230.615 242.076 230.866C242.201 231.119 242.191 231.791 241.686 232.647C241.179 233.501 240.689 234.481 240.689 234.481L239.135 233.758Z" fill="#C68050"/>
<path d="M201.691 264.219C201.691 264.219 199.168 263.59 198.339 263.888C197.509 264.187 195.995 265.724 196.386 265.749C196.776 265.773 198.51 265.288 198.753 265.353C198.997 265.417 199.705 265.513 199.705 265.513C199.705 265.513 198.68 265.58 198.73 265.773C198.777 265.968 201.383 266.002 201.691 265.773C201.999 265.546 203.059 264.219 203.059 264.219H201.691Z" fill="#C68050"/>
<path d="M214.573 230.393C214.573 230.393 215.062 232.037 215.573 232.992C216.316 234.376 216.47 236.197 218.073 236.11C222.103 235.889 221.073 229.353 221.073 229.353C221.073 229.353 227.016 230.828 227.983 231.895C228.947 232.964 235.073 240.788 235.073 240.788C235.073 240.788 236.201 245.034 232.073 247.545L228.398 243.086C228.398 243.086 229.073 250.835 229.073 252.742C229.073 254.301 231.999 262.537 231.438 263.888C230.877 265.24 212.131 268.564 210.717 263.671C211.733 258.459 211.876 254.63 211.733 252.882C211.587 251.132 211.733 245.487 211.733 245.487C211.733 245.487 210.255 252.295 209.573 252.222C207.616 252.013 203.42 252.763 204.573 249.624C204.573 249.624 206.255 236.332 209.044 232.472C209.522 231.81 214.033 230.386 214.573 230.393Z" fill="white"/>
<path d="M191.849 207.842H245.296V265.75H191.849V207.842ZM191.849 190.892H245.296V204.635H191.849V190.892ZM249.242 265.75H248.038V188.041H189.107V204.635V207.842V265.75H187.904C184.896 265.75 182.46 268.284 182.46 271.413V271.61H254.685V271.413C254.685 268.284 252.247 265.75 249.242 265.75Z" fill="#7ED787"/>
<path d="M244.491 194.825H192.817V192.122H244.491V194.825Z" fill="white"/>
<path d="M244.491 199.071H192.817V196.368H244.491V199.071Z" fill="white"/>
<path d="M244.491 203.317H192.817V200.614H244.491V203.317Z" fill="white"/>
<path d="M244.491 207.295H192.817V204.591H244.491V207.295Z" fill="white"/>
<path d="M244.491 211.766H192.817V209.062H244.491V211.766Z" fill="white"/>
<path d="M195.716 213.959H195.217V190.848H195.716V213.959Z" fill="white"/>
<path d="M242.392 213.959H241.892V190.848H242.392V213.959Z" fill="white"/>
<path d="M230.927 263.584H223.32V260.789H230.952C231.545 260.789 232.025 261.289 232.025 261.906V262.441C232.025 263.072 231.534 263.584 230.927 263.584Z" fill="#FCECDB"/>
<path d="M238.519 261.939V262.359C238.519 262.584 238.46 262.793 238.359 262.975C238.156 263.339 237.775 263.584 237.341 263.584H223.086C222.993 263.584 222.916 263.504 222.916 263.406V263.343C222.916 263.245 222.993 263.166 223.086 263.166H231.777C231.823 263.106 231.863 263.042 231.897 262.975C231.979 262.815 232.025 262.634 232.025 262.441V261.906C232.025 261.808 232.014 261.712 231.991 261.621C231.951 261.468 231.882 261.326 231.788 261.207H223.086C222.993 261.207 222.916 261.127 222.916 261.028V260.966C222.916 260.868 222.993 260.789 223.086 260.789H237.413C237.918 260.789 238.343 261.141 238.475 261.621C238.504 261.722 238.519 261.828 238.519 261.939Z" fill="#699DEE"/>
<path d="M238.475 261.621H231.991C231.951 261.468 231.882 261.326 231.788 261.207H223.086C222.993 261.207 222.916 261.127 222.916 261.028V260.966C222.916 260.869 222.993 260.789 223.086 260.789H237.413C237.918 260.789 238.343 261.141 238.475 261.621Z" fill="#548EE2"/>
<path d="M223.32 262.187L224.376 262.232L223.32 262.262V262.187Z" fill="#F4D2B8"/>
<path d="M223.32 262.625L225.83 262.672L223.32 262.7V262.625Z" fill="#F4D2B8"/>
<path d="M224.948 265.75H233.045V263.574H224.881C224.322 263.574 223.869 264.046 223.869 264.627C223.869 265.246 224.353 265.75 224.948 265.75Z" fill="#B5453C"/>
<path d="M232.58 265.75H241.797V263.574H232.557C231.989 263.574 231.528 264.054 231.528 264.645V264.655C231.528 265.258 231.999 265.75 232.58 265.75Z" fill="#FCECDB"/>
<path d="M230.912 265.75H242.116C242.202 265.75 242.273 265.676 242.273 265.586C242.273 265.497 242.202 265.423 242.116 265.423H230.912C230.826 265.423 230.757 265.497 230.757 265.586C230.757 265.676 230.826 265.75 230.912 265.75Z" fill="#B5453C"/>
<path d="M230.912 263.9H242.116C242.202 263.9 242.273 263.827 242.273 263.737C242.273 263.647 242.202 263.574 242.116 263.574H230.912C230.826 263.574 230.757 263.647 230.757 263.737C230.757 263.827 230.826 263.9 230.912 263.9Z" fill="#B5453C"/>
<path d="M241.797 264.662L240.551 264.699L241.797 264.72V264.662Z" fill="#F4D2B8"/>
<path d="M241.797 264.162L238.835 264.197L241.797 264.221V264.162Z" fill="#F4D2B8"/>
<path d="M238.866 264.191C238.866 264.191 238.992 264.284 239.034 264.438C239.042 264.464 239.047 264.493 239.047 264.523C239.055 264.728 239.047 265.19 239.047 265.19L239.422 264.959L239.795 265.19V264.563C239.795 264.446 239.765 264.33 239.704 264.255C239.675 264.219 239.64 264.191 239.6 264.191H238.866Z" fill="#699DEE"/>
<path d="M238.866 264.191C238.866 264.191 238.992 264.284 239.034 264.438L239.786 264.446C239.786 264.446 239.755 264.227 239.6 264.191H238.866Z" fill="#568CDB"/>
<path d="M245.468 54.3725V132.081H189.28V54.3725H245.468Z" fill="#DFEBFD"/>
<path d="M216.282 55.7739C216.282 55.7739 216.149 78.7358 238.538 98.1485C238.538 98.1485 233.874 123.457 234.54 130.63H245.296V55.7739H216.282Z" fill="white"/>
<path d="M196.242 99.3468C196.242 99.3468 191.558 100.036 190.351 101.136C188.311 102.992 189.806 131.251 189.806 131.251C189.806 131.251 196.851 131.856 196.851 131.251C196.851 130.645 196.242 99.3468 196.242 99.3468Z" fill="#D39E7A"/>
<path d="M214.608 131.302L204.537 132.081L197.518 132.622L196.038 132.738L195.946 132.081L195.865 131.499L195.848 131.37L195.494 128.814L195.492 128.806L195.353 127.799L194.922 124.69L192.716 108.796L192.102 104.367C192.102 104.367 191.635 100.189 195.37 99.5081C195.643 99.4583 195.932 99.4046 196.229 99.3488L196.242 99.3468C197.507 99.1119 198.953 98.8412 200.377 98.6521C201.552 98.4948 202.711 98.3933 203.739 98.4132C204.181 98.4212 204.598 98.453 204.98 98.5108C205.478 98.5844 205.918 98.7058 206.283 98.885C206.325 98.9029 206.366 98.9248 206.406 98.9487C206.551 99.0263 206.681 99.1139 206.798 99.2155C206.848 99.2573 206.894 99.303 206.938 99.3488C207.064 99.4822 207.211 99.7649 207.378 100.173C207.558 100.617 207.759 101.208 207.977 101.923C208.281 102.916 208.618 104.142 208.974 105.526C209.967 109.402 211.107 114.509 212.102 119.156C212.132 119.297 212.163 119.436 212.192 119.576C212.32 120.175 212.446 120.766 212.567 121.343C212.572 121.371 212.58 121.399 212.586 121.427C212.609 121.534 212.63 121.642 212.653 121.749C212.714 122.036 212.773 122.321 212.833 122.599C212.948 123.157 213.06 123.698 213.169 124.22C213.9 127.747 214.434 130.425 214.572 131.123C214.597 131.241 214.608 131.302 214.608 131.302Z" fill="#EFCBAB"/>
<path d="M208.239 101.821C208.239 101.821 209.831 104.272 210.74 109.423C211.534 113.936 212.232 115.602 213.38 116.528C214.528 117.454 220.926 120.185 220.926 120.185L220.448 121.351C220.448 121.351 211.071 120.022 210.016 118.391C208.964 116.761 204.948 107.126 205.26 104.909C205.572 102.689 208.239 101.821 208.239 101.821Z" fill="#F4A269"/>
<path d="M229.722 132.081H221.98C221.787 131.279 221.5 130.771 220.955 130.741C220.463 130.713 217.798 131.008 214.572 131.123C209.454 131.308 202.927 131.048 201.458 128.354C201.106 127.711 200.849 127.068 200.668 126.439V126.437C200.639 126.344 200.614 126.254 200.589 126.163C200.289 125 200.233 123.897 200.297 122.938C200.333 122.378 200.409 121.867 200.501 121.423C200.727 120.312 201.043 119.619 201.043 119.619L203.57 121.544H203.572L203.855 121.759C203.855 121.759 206.027 121.59 209.014 121.459C209.676 121.431 210.378 121.403 211.107 121.381C211.468 121.369 211.836 121.359 212.209 121.351C212.328 121.347 212.448 121.345 212.567 121.343C213.47 121.323 214.396 121.313 215.318 121.313C215.41 121.313 215.502 121.313 215.592 121.315C215.81 121.315 216.026 121.317 216.242 121.319C219.809 121.357 223.197 121.6 224.917 122.277C225.158 122.37 225.367 122.474 225.539 122.587L225.556 122.599C226.796 123.441 228.302 127.383 229.722 132.081Z" fill="#ED7D2B"/>
<path d="M222.617 132.081H204.537L197.518 132.622C197.178 132.459 196.87 132.28 196.598 132.081C196.349 131.902 196.133 131.707 195.949 131.496C195.915 131.454 195.881 131.412 195.848 131.37C195.735 131.227 195.64 131.075 195.561 130.916C195.207 130.206 195.085 129.519 195.131 128.868V128.866C195.155 128.498 195.232 128.141 195.353 127.799C195.636 126.983 196.152 126.24 196.749 125.593C198.261 123.955 200.281 122.938 200.281 122.938H200.297C200.497 122.948 202.606 123.057 205.392 123.3H205.394C205.662 123.322 205.935 123.348 206.215 123.372H206.216C208.396 123.575 210.887 123.851 213.169 124.22C216.114 124.696 218.71 125.321 219.841 126.129C220.721 126.758 221.68 129.047 222.617 132.081Z" fill="#F99746"/>
<path d="M207.879 92.9051L207.877 92.8673V92.8653C207.871 92.5428 207.856 92.2223 207.835 91.9038C207.772 90.9463 207.653 90.0187 207.487 89.1866C207.393 88.7109 207.284 88.2669 207.164 87.8629C207.144 87.8011 207.125 87.7414 207.106 87.6817V87.6797C206.811 86.764 206.452 86.0932 206.058 85.8225C205.338 85.3288 204.445 85.2173 203.817 85.2133C203.989 85.0521 204.311 85.0103 204.311 85.0103C203.926 84.9227 203.033 85.2631 203.033 85.2631C197.765 82.7211 196.386 90.9444 196.376 92.8753C196.365 94.8082 196.236 97.0237 193.428 98.5625C192.351 99.1517 191.639 99.8644 191.191 100.629C189.343 103.784 192 107.827 192 107.827C192.012 107.835 192.303 108.229 192.716 108.796C193.787 110.261 195.684 112.875 195.684 112.875V112.871C195.678 112.519 195.969 111.832 196.466 110.954C196.833 110.307 197.312 109.555 197.867 108.757C198.129 108.378 198.408 107.99 198.701 107.596C199.089 107.074 199.501 106.543 199.927 106.019C200.09 105.818 200.254 105.617 200.421 105.42C201.175 104.524 201.961 103.663 202.732 102.91C202.912 102.735 203.09 102.566 203.266 102.402H203.268C203.488 102.201 203.706 102.008 203.92 101.831C204.334 101.485 204.735 101.184 205.118 100.941C205.135 100.929 205.153 100.919 205.172 100.907H205.174C205.227 100.874 205.279 100.842 205.332 100.81C205.495 100.595 205.642 100.35 205.776 100.089C205.826 99.9918 205.876 99.8922 205.92 99.7907C206.058 99.4921 206.178 99.1836 206.283 98.885C206.597 97.9773 206.762 97.1571 206.792 97.0098C206.678 97.7941 206.546 98.4311 206.406 98.9487C206.312 99.2931 206.216 99.5837 206.123 99.8305C206.054 100.01 205.987 100.163 205.92 100.298C205.891 100.36 205.861 100.418 205.832 100.472C205.874 100.436 205.914 100.4 205.954 100.362C206.107 100.221 206.249 100.061 206.381 99.8843C206.534 99.6812 206.672 99.4583 206.798 99.2154C207.63 97.6229 207.933 95.2342 207.879 92.9051Z" fill="black"/>
<path d="M205.239 99.6832C205.147 99.6434 205.038 99.5996 204.925 99.5578C204.931 99.307 204.944 99.0402 204.963 98.7715C205.045 97.5373 205.22 96.2355 205.22 96.2355L201.274 95.1346L201.041 95.0689C200.932 96.8784 200.578 98.1166 200.268 98.9547C199.858 98.9726 199.6 98.9985 199.6 98.9985C199.533 99.2453 199.6 99.6315 199.818 100.059C199.79 100.137 199.767 100.205 199.755 100.263C199.508 101.411 202.288 103.033 203.576 103.091C204.33 103.127 204.734 102.814 204.944 102.418C206.515 101.994 206.392 100.185 205.239 99.6832Z" fill="#FFB27D"/>
<path d="M205.22 96.2355C205.22 96.2355 205.045 97.5374 204.963 98.7715C202.73 98.5506 201.684 96.345 201.274 95.1347L205.22 96.2355Z" fill="#F4A269"/>
<path d="M200.892 94.6529C200.892 94.6529 199.843 92.6464 199.667 90.9782C199.541 89.7878 200.396 85.4682 204.567 86.3878C204.567 86.3878 205.782 86.5988 206.88 87.4867C207.755 88.1913 208.985 89.6704 207.265 93.373L206.8 94.631L200.892 94.6529Z" fill="black"/>
<path d="M205.891 97.4557C205.891 97.4557 200.593 97.179 200.809 93.7492C201.026 90.3193 200.488 87.9744 203.88 88.0042C207.271 88.0361 207.845 89.3897 208.04 90.5523C208.237 91.7168 207.274 97.4378 205.891 97.4557Z" fill="#FFB27D"/>
<path d="M206.295 88.0878C206.295 88.0878 204.588 92.0113 202.327 92.4513C200.065 92.8932 199.141 92.2064 199.141 92.2064C199.141 92.2064 200.936 90.9145 201.448 88.478C201.448 88.478 205.325 86.0972 206.295 88.0878Z" fill="black"/>
<path d="M205.914 88.3904C205.914 88.3904 206.94 89.3638 207.148 90.2556C207.355 91.1474 207.359 92.9529 207.866 92.927C207.866 92.927 209.132 90.2675 208.005 88.6352C206.81 86.9054 205.914 88.3904 205.914 88.3904Z" fill="black"/>
<path d="M211.193 122.046C210.764 122.579 209.425 122.745 207.994 122.99C206.869 123.183 205.686 123.425 204.845 123.939C202.935 125.106 196.696 129.047 194.867 128.868C194.159 128.798 194.291 127.391 194.719 125.522C195.397 122.572 196.811 118.475 196.811 116.691C196.811 115.72 197.122 113.419 197.538 110.787C197.572 110.576 197.606 110.361 197.641 110.146C198.462 105.03 199.6 99.0005 199.6 99.0005C199.6 99.0005 200.869 101.879 203.341 101.879C205.813 101.879 205.239 99.6833 205.239 99.6833C205.239 99.6833 207.495 99.9599 208.026 100.557C208.56 101.154 209.913 103.736 210.181 104.439C210.181 104.439 210.234 105.335 208.103 105.763C208.103 105.763 208.621 108.195 208.685 109.816C208.729 111.014 207.898 114.762 207.659 117.093C207.575 117.919 207.563 118.566 207.692 118.861C207.856 119.237 208.39 119.613 208.998 119.98C210.204 120.71 211.702 121.413 211.193 122.046Z" fill="#739AF0"/>
<path d="M208.998 119.98C210.366 122.408 205.287 123.137 204.445 123.652C202.535 124.819 196.696 129.047 194.867 128.868C194.159 128.798 194.291 127.391 194.719 125.522C195.397 122.572 196.811 118.475 196.811 116.691C196.811 115.72 197.122 113.419 197.538 110.787L199.738 108.589C199.738 108.589 202.097 114.931 204.345 115.971C205.524 116.516 206.754 116.874 207.659 117.093C207.575 117.919 207.563 118.566 207.692 118.861C207.856 119.237 208.39 119.613 208.998 119.98Z" fill="#4A75CB"/>
<path d="M216.397 122.599H209.473V121.749H216.397V122.599Z" fill="#233862"/>
<path d="M214.926 122.484C214.995 122.201 221.292 111.912 221.292 111.912H235.307L228.277 122.207L214.926 122.484Z" fill="#233862"/>
<path d="M215.515 122.599C215.584 122.319 221.902 111.912 221.902 111.912H235.307L228.62 122.599H215.515Z" fill="#2B478B"/>
<path d="M226.609 117.613C226.471 118.031 226.035 118.369 225.635 118.369C225.233 118.369 225.021 118.031 225.158 117.613C225.296 117.197 225.732 116.858 226.134 116.858C226.534 116.858 226.747 117.197 226.609 117.613Z" fill="#AFCDFB"/>
<path d="M213.277 119.084C212.988 118.955 210.749 119.379 210.11 119.502C208.084 119.09 201.422 117.704 201.098 117.27C200.716 116.759 199.879 101.158 198.923 100.898C198.923 100.898 197.04 99.7091 195.22 101.965C193.401 104.22 196.514 120.346 199.21 121.174C202.206 122.094 210.858 121.027 210.858 121.027C211.568 121.278 212.81 121.421 213.47 121.65C214.34 121.952 215.115 121.7 215.309 121.347C215.502 120.995 213.615 119.235 213.277 119.084Z" fill="#FFB27D"/>
<path d="M199.6 98.9985C199.6 98.9985 195.733 99.3608 194.612 100.685C193.489 102.006 193.162 105.591 193.162 105.591C193.162 105.591 196.566 108.45 200.666 107.341L199.6 98.9985Z" fill="#739AF0"/>
<path d="M214.817 55.7739C214.817 55.7739 210.726 74.5774 191.849 81.2321C191.849 81.2321 192.027 110.21 194.161 117.836C196.292 125.462 196.826 130.63 196.826 130.63H191.849V55.7739H214.817Z" fill="white"/>
<path d="M245.296 130.63H191.849V72.7241H245.296V130.63ZM245.296 69.5172H191.849V55.7739H245.296V69.5172ZM182.46 136.293V136.49H254.685V136.293C254.685 133.166 252.247 130.63 249.242 130.63H248.038V72.7241V69.5172V52.9214H189.107V69.5172V72.7241V130.63H187.904C184.896 130.63 182.46 133.166 182.46 136.293Z" fill="#7ED787"/>
<path d="M236.212 124.986C236.212 124.986 238.108 125.786 239.457 123.774C239.457 123.774 237.268 123.388 236.212 124.986Z" fill="#6BB7BF"/>
<path d="M236.078 124.16C236.078 124.16 235.944 123.453 235.15 123.429C235.15 123.429 235.448 124.144 236.078 124.16Z" fill="#6BB7BF"/>
<path d="M236.478 120.029C236.478 120.029 237.398 120.133 237.742 119.084C237.742 119.084 236.746 119.199 236.478 120.029Z" fill="#6BB7BF"/>
<path d="M238.661 106.163C236.805 105.749 236.772 104.168 236.772 104.168C238.959 104.887 238.661 106.163 238.661 106.163Z" fill="#6BB7BF"/>
<path d="M238.789 105.802C238.789 105.802 239.947 106.292 240.769 105.062C240.769 105.062 239.434 104.827 238.789 105.802Z" fill="#6BB7BF"/>
<path d="M236.248 129.618L236.007 129.907C235.971 129.949 235.902 129.923 235.902 129.865C235.915 121.733 236.908 114.507 237.74 110.246C238.651 105.593 239.573 102.842 239.583 102.816C239.573 102.842 238.741 105.637 237.834 110.277C237 114.545 236.045 120.127 236.286 129.509C236.288 129.549 236.273 129.588 236.248 129.618Z" fill="#6BB7BF"/>
<path d="M239.568 101.708C239.271 101.955 238.137 103.01 239.237 103.824C239.237 103.824 240.08 104.102 240.36 103.426C240.572 102.91 240.63 102.335 240.645 102.092C240.649 102.028 240.603 101.975 240.542 101.969C240.478 101.963 240.39 101.947 240.304 101.913C240.199 101.871 240.147 101.706 240.006 101.67C239.918 101.648 239.828 101.628 239.725 101.638C239.667 101.644 239.612 101.67 239.568 101.708Z" fill="#F99746"/>
<path d="M238.938 103.529C238.938 103.529 239.273 103.81 239.149 104.256L239.145 104.421C239.145 104.421 239.235 104.009 239.646 103.879C239.646 103.879 239.275 103.923 238.938 103.529Z" fill="#6BB7BF"/>
<path d="M238.661 106.163C236.805 105.749 236.772 104.168 236.772 104.168C236.772 104.168 238.244 105.008 238.661 106.163Z" fill="#8AD8DB"/>
<path d="M236.878 105.08C236.878 105.08 235.71 105.546 234.911 104.3C234.911 104.3 236.252 104.091 236.878 105.08Z" fill="#6BB7BF"/>
<path d="M238.959 128.946L239.193 129.238C239.229 129.282 239.298 129.256 239.3 129.198C239.443 121.067 238.59 113.825 237.838 109.545C237.019 104.875 236.149 102.106 236.141 102.078C236.149 102.106 236.927 104.917 237.744 109.573C238.496 113.861 239.344 119.458 238.923 128.834C238.921 128.874 238.934 128.914 238.959 128.946Z" fill="#6BB7BF"/>
<path d="M236.177 100.971C236.468 101.224 237.582 102.303 236.466 103.093C236.466 103.093 235.619 103.352 235.353 102.671C235.15 102.152 235.102 101.576 235.092 101.331C235.089 101.268 235.136 101.216 235.198 101.212C235.263 101.206 235.349 101.192 235.437 101.16C235.542 101.12 235.598 100.957 235.739 100.923C235.827 100.904 235.919 100.886 236.02 100.898C236.08 100.904 236.133 100.931 236.177 100.971Z" fill="#F99746"/>
<path d="M236.772 102.805C236.772 102.805 236.432 103.077 236.547 103.527V103.692C236.547 103.692 236.464 103.276 236.057 103.141C236.057 103.141 236.426 103.191 236.772 102.805Z" fill="#6BB7BF"/>
<path d="M237.373 103.657C237.373 103.657 238.605 103.872 239.151 102.484C239.151 102.484 237.798 102.558 237.373 103.657Z" fill="#6BB7BF"/>
<path d="M239.884 127.476L239.711 127.811C239.685 127.863 239.612 127.851 239.598 127.795C237.907 119.854 237.362 112.579 237.281 108.231C237.195 103.483 237.519 100.591 237.522 100.561C237.519 100.591 237.293 103.505 237.379 108.239C237.459 112.596 237.696 118.258 239.901 127.361C239.908 127.399 239.903 127.441 239.884 127.476Z" fill="#6BB7BF"/>
<path d="M237.274 99.4842C237.036 99.7928 236.152 101.079 237.396 101.624C237.396 101.624 238.276 101.704 238.406 100.981C238.508 100.43 238.443 99.8545 238.406 99.6136C238.397 99.5499 238.341 99.5081 238.28 99.518C238.217 99.526 238.129 99.53 238.037 99.5161C237.926 99.4981 237.84 99.3508 237.695 99.3468C237.605 99.3449 237.513 99.3469 237.413 99.3807C237.358 99.3986 237.31 99.4364 237.274 99.4842Z" fill="#F99746"/>
<path d="M237.042 101.403C237.042 101.403 237.429 101.6 237.4 102.066L237.432 102.227C237.432 102.227 237.432 101.803 237.807 101.586C237.807 101.586 237.453 101.712 237.042 101.403Z" fill="#6BB7BF"/>
<path d="M238.389 102.227C238.389 102.227 238.389 101.212 239.231 100.894C239.231 100.894 239.417 101.742 238.389 102.227Z" fill="#6BB7BF"/>
<path d="M236.415 100.595C236.415 100.595 236.439 99.8206 235.749 99.5977C235.749 99.5977 235.584 100.318 236.415 100.595Z" fill="#ED9F4A"/>
<path d="M238.674 105.259C238.699 105.281 239.034 104.505 238.355 103.879C238.355 103.879 238.07 104.712 238.674 105.259Z" fill="#ED9F4A"/>
<path d="M239.151 105.197C239.132 105.203 239.145 104.811 239.499 104.755C239.499 104.755 239.558 105.082 239.151 105.197Z" fill="#6BB7BF"/>
<path d="M235.628 103.879C235.628 103.879 235.33 103.238 234.375 103.35C234.375 103.35 234.518 104.039 235.628 103.879Z" fill="#6BB7BF"/>
<path d="M240.903 130.57H234.784C234.373 130.57 234.057 130.192 234.117 129.768L236.966 109.342C236.992 109.151 237.149 109.009 237.333 109.009H238.244C238.441 109.009 238.607 109.161 238.636 109.364L241.554 129.788C241.611 130.2 241.305 130.57 240.903 130.57Z" fill="#F99746"/>
<path d="M236.139 129.953L237.652 109.015C237.49 109.037 237.358 109.169 237.333 109.342L234.484 129.768C234.425 130.192 234.74 130.57 235.152 130.57H236.374C236.217 130.423 236.122 130.2 236.139 129.953Z" fill="#FFB278"/>
<path d="M403.439 177.03H402.153L402.164 176.924L402.554 173.357C402.568 173.244 402.659 173.156 402.773 173.156L402.812 173.158C402.883 173.168 402.95 173.2 403.002 173.25C403.063 173.307 403.105 173.387 403.113 173.479L403.439 177.03Z" fill="#7ED787"/>
<path d="M402.279 176.22L402.232 176.222L402.553 173.357C402.567 173.244 402.661 173.156 402.771 173.156L402.813 173.158L402.846 173.192C402.901 173.256 402.937 173.339 402.937 173.431L402.956 175.489C402.959 175.885 402.658 176.21 402.279 176.22Z" fill="#B2F6B9"/>
<path d="M404.26 192.901V306.761H401.782V192.901H404.26Z" fill="#60CA6B"/>
<path d="M402.925 192.901V306.761H401.781V192.901H402.925Z" fill="#7ED787"/>
<path d="M406.967 288.59V318.716H399.075V288.59H406.967Z" fill="#60CA6B"/>
<path d="M403.779 288.59V318.716H399.073V288.59H403.779Z" fill="#60CA6B"/>
<path d="M407.335 178.747C407.335 180.155 405.304 181.295 402.798 181.295C402.606 181.295 402.419 181.287 402.235 181.275C399.994 181.118 398.265 180.047 398.265 178.747C398.265 177.447 399.994 176.376 402.235 176.221C402.419 176.207 402.606 176.201 402.798 176.201C405.304 176.201 407.335 177.342 407.335 178.747Z" fill="#60CA6B"/>
<path d="M404.986 178.747C404.986 179.882 403.851 180.855 402.233 181.275C399.993 181.118 398.264 180.047 398.264 178.747C398.264 177.447 399.993 176.376 402.233 176.221C403.851 176.639 404.986 177.613 404.986 178.747Z" fill="#7ED787"/>
<path d="M406.959 195.146H399.065L396.282 181.203H409.315L406.959 195.146Z" fill="#B2F6B9"/>
<path d="M410.02 180.152V181.49H395.578V180.152H410.02Z" fill="#7ED787"/>
<path d="M404.656 180.153V181.49H395.578V180.153H404.656Z" fill="#7ED787"/>
<path d="M400.365 288.59H405.41L404.671 286.261C404.608 286.056 404.421 285.915 404.213 285.915H401.849C401.593 285.915 401.363 286.076 401.265 286.323L400.365 288.59Z" fill="#60CA6B"/>
<path d="M397.217 181.884H408.348L406.176 194.415H399.784L397.217 181.884Z" fill="#7ED787"/>
<path d="M398.564 178.898C398.564 178.898 399.412 176.969 401.085 177.029C401.085 177.029 400.02 178.014 400.119 178.898C400.215 179.78 398.564 178.898 398.564 178.898Z" fill="#B2F6B9"/>
<path d="M409.097 180.153H396.502L397.533 178.626H408.117L409.097 180.153Z" fill="#7ED787"/>
<path d="M405.997 180.152H396.503L397.535 178.625H405.018L405.997 180.152Z" fill="#7ED787"/>
<path d="M397.952 182.321H400.504L401.247 194.024H400.504L397.952 182.321Z" fill="#B2F6B9"/>
<path d="M138.305 92.4135L77.4214 113.311C80.5501 109.515 83.9774 105.85 87.6702 102.327L138.305 92.4135Z" fill="#F1F7FD"/>
<path d="M134.342 107.339C134.342 105.062 136.116 103.217 138.305 103.217C140.494 103.217 142.269 105.062 142.269 107.339C142.269 109.616 140.494 111.464 138.305 111.464C136.116 111.464 134.342 109.616 134.342 107.339Z" fill="#F8FBFF"/>
<path d="M377.27 17.1201L147.621 25.7295L147.054 9.37542L376.705 0.766052L377.27 17.1201Z" fill="#7ED787"/>
<path d="M252.511 49.8232H184.798V34.7593H252.511V49.8232Z" fill="#7ED787"/>
<path d="M341.854 49.8228H274.141V34.7581H341.854V49.8228Z" fill="#7ED787"/>
<path d="M252.511 182.249H184.799V167.183H252.511V182.249Z" fill="#7ED787"/>
<path d="M341.854 182.248H274.141V167.183H341.854V182.248Z" fill="#7ED787"/>
<ellipse cx="214.673" cy="221.037" rx="0.5" ry="1.03949" fill="#986039"/>
</svg>
